<svg width="288" height="36" viewBox="0 0 288 36" fill="none" xmlns="http://www.w3.org/2000/svg">
<path d="M1 36L1.19209e-07 33L1 28V0.6H26.75L29.25 2.1L25.95 10.6L21.45 10.1H12.1V14.1H24.45V22.35H17.55L12.1 21.85V26.5H25.95L31.9 32.8L28.95 36H1ZM35.9121 36V8.65L34.9121 3.65L35.9121 0.649999H45.9621L56.0621 13.25L58.4621 17.4H58.9621V0.649999H70.5121V3.65L70.0121 8.65V36H60.0621L47.5121 18.9H47.0121V21.9L47.5121 36H35.9121ZM77.5137 36V8.7L76.5137 3.6L77.5137 0.6H103.264L105.764 2.1L102.464 10.6L97.9637 10.1H88.0137L88.5137 14.1H100.964V22.35H93.9137L88.5137 21.85V28.05L89.0637 33.05L88.5137 36H77.5137ZM110.082 36V8.65L109.082 3.6L110.082 0.6H128.082C130.782 0.6 133.099 1.03333 135.032 1.9C136.965 2.76667 138.449 4.16667 139.482 6.1C140.515 8 141.032 10.5167 141.032 13.65C141.032 16.55 140.549 18.9333 139.582 20.8C138.615 22.6667 137.199 24.0833 135.332 25.05L136.182 25.75L139.632 30.45L142.482 33V36H129.232L123.732 26.85H121.082V27.95L121.582 32.95L121.082 36H110.082ZM121.082 17.5H123.982C125.149 17.5 126.149 17.45 126.982 17.35C127.849 17.25 128.515 16.95 128.982 16.45C129.449 15.9167 129.682 15.0667 129.682 13.9C129.682 12.6667 129.432 11.7833 128.932 11.25C128.432 10.7167 127.732 10.4 126.832 10.3C125.965 10.1667 124.949 10.1 123.782 10.1H120.582L121.082 17.5ZM146.996 36L145.996 33L146.996 28V0.6H172.746L175.246 2.1L171.946 10.6L167.446 10.1H158.096V14.1H170.446V22.35H163.546L158.096 21.85V26.5H171.946L177.896 32.8L174.946 36H146.996ZM181.908 36V8.65L180.908 3.65L181.908 0.649999H191.958L202.058 13.25L204.458 17.4H204.958V0.649999H216.508V3.65L216.008 8.65V36H206.058L193.508 18.9H193.008V21.9L193.508 36H181.908ZM230.51 36V10.15L220.51 10.65V0.6H251.76V10.65L241.51 10.15V28L242.06 33L241.51 36H230.51ZM256.762 36L255.762 33L256.762 28V0.6H282.512L285.012 2.1L281.712 10.6L277.212 10.1H267.862V14.1H280.212V22.35H273.312L267.862 21.85V26.5H281.712L287.662 32.8L284.712 36H256.762Z" fill="#FBA94C"/>
</svg>
